<svg width="132" height="63" viewBox="0 0 132 63" fill="none" xmlns="http://www.w3.org/2000/svg">
<g opacity="0.3">
<mask id="mask0_2127_262" style="mask-type:alpha" maskUnits="userSpaceOnUse" x="0" y="0" width="11" height="11">
<path d="M5.22838 10.425C8.11594 10.425 10.4568 8.09121 10.4568 5.21245C10.4568 2.33368 8.11594 0 5.22838 0C2.34082 0 0 2.33368 0 5.21245C0 8.09121 2.34082 10.425 5.22838 10.425Z" fill="url(#paint0_linear_2127_262)"/>
</mask>
<g mask="url(#mask0_2127_262)">
<path d="M5.22838 10.425C8.11594 10.425 10.4568 8.09121 10.4568 5.21245C10.4568 2.33368 8.11594 0 5.22838 0C2.34082 0 0 2.33368 0 5.21245C0 8.09121 2.34082 10.425 5.22838 10.425Z" fill="url(#paint1_linear_2127_262)"/>
</g>
<mask id="mask1_2127_262" style="mask-type:alpha" maskUnits="userSpaceOnUse" x="30" y="0" width="11" height="11">
<path d="M35.5095 10.425C38.397 10.425 40.7378 8.09121 40.7378 5.21245C40.7378 2.33368 38.397 0 35.5095 0C32.6219 0 30.2811 2.33368 30.2811 5.21245C30.2811 8.09121 32.6219 10.425 35.5095 10.425Z" fill="url(#paint2_linear_2127_262)"/>
</mask>
<g mask="url(#mask1_2127_262)">
<path d="M35.5095 10.425C38.397 10.425 40.7378 8.09121 40.7378 5.21245C40.7378 2.33368 38.397 0 35.5095 0C32.6219 0 30.2811 2.33368 30.2811 5.21245C30.2811 8.09121 32.6219 10.425 35.5095 10.425Z" fill="url(#paint3_linear_2127_262)"/>
</g>
<mask id="mask2_2127_262" style="mask-type:alpha" maskUnits="userSpaceOnUse" x="60" y="0" width="12" height="11">
<path d="M65.7905 10.425C68.6781 10.425 71.0189 8.09121 71.0189 5.21245C71.0189 2.33368 68.6781 0 65.7905 0C62.903 0 60.5621 2.33368 60.5621 5.21245C60.5621 8.09121 62.903 10.425 65.7905 10.425Z" fill="url(#paint4_linear_2127_262)"/>
</mask>
<g mask="url(#mask2_2127_262)">
<path d="M65.7905 10.425C68.6781 10.425 71.0189 8.09121 71.0189 5.21245C71.0189 2.33368 68.6781 0 65.7905 0C62.903 0 60.5621 2.33368 60.5621 5.21245C60.5621 8.09121 62.903 10.425 65.7905 10.425Z" fill="url(#paint5_linear_2127_262)"/>
</g>
<mask id="mask3_2127_262" style="mask-type:alpha" maskUnits="userSpaceOnUse" x="90" y="0" width="12" height="11">
<path d="M96.0716 10.425C98.9592 10.425 101.3 8.09121 101.3 5.21245C101.3 2.33368 98.9592 0 96.0716 0C93.184 0 90.8432 2.33368 90.8432 5.21245C90.8432 8.09121 93.184 10.425 96.0716 10.425Z" fill="url(#paint6_linear_2127_262)"/>
</mask>
<g mask="url(#mask3_2127_262)">
<path d="M96.0716 10.425C98.9592 10.425 101.3 8.09121 101.3 5.21245C101.3 2.33368 98.9592 0 96.0716 0C93.184 0 90.8432 2.33368 90.8432 5.21245C90.8432 8.09121 93.184 10.425 96.0716 10.425Z" fill="url(#paint7_linear_2127_262)"/>
</g>
<mask id="mask4_2127_262" style="mask-type:alpha" maskUnits="userSpaceOnUse" x="121" y="0" width="11" height="11">
<path d="M126.353 10.425C129.24 10.425 131.581 8.09121 131.581 5.21245C131.581 2.33368 129.24 0 126.353 0C123.465 0 121.124 2.33368 121.124 5.21245C121.124 8.09121 123.465 10.425 126.353 10.425Z" fill="url(#paint8_linear_2127_262)"/>
</mask>
<g mask="url(#mask4_2127_262)">
<path d="M126.353 10.425C129.24 10.425 131.581 8.09121 131.581 5.21245C131.581 2.33368 129.24 0 126.353 0C123.465 0 121.124 2.33368 121.124 5.21245C121.124 8.09121 123.465 10.425 126.353 10.425Z" fill="url(#paint9_linear_2127_262)"/>
</g>
<mask id="mask5_2127_262" style="mask-type:alpha" maskUnits="userSpaceOnUse" x="0" y="26" width="11" height="11">
<path d="M5.22838 36.5958C8.11594 36.5958 10.4568 34.2621 10.4568 31.3833C10.4568 28.5046 8.11594 26.1709 5.22838 26.1709C2.34082 26.1709 0 28.5046 0 31.3833C0 34.2621 2.34082 36.5958 5.22838 36.5958Z" fill="url(#paint10_linear_2127_262)"/>
</mask>
<g mask="url(#mask5_2127_262)">
<path d="M5.22838 36.5958C8.11594 36.5958 10.4568 34.2621 10.4568 31.3833C10.4568 28.5046 8.11594 26.1709 5.22838 26.1709C2.34082 26.1709 0 28.5046 0 31.3833C0 34.2621 2.34082 36.5958 5.22838 36.5958Z" fill="url(#paint11_linear_2127_262)"/>
</g>
<mask id="mask6_2127_262" style="mask-type:alpha" maskUnits="userSpaceOnUse" x="30" y="26" width="11" height="11">
<path d="M35.5095 36.5958C38.397 36.5958 40.7378 34.2621 40.7378 31.3833C40.7378 28.5046 38.397 26.1709 35.5095 26.1709C32.6219 26.1709 30.2811 28.5046 30.2811 31.3833C30.2811 34.2621 32.6219 36.5958 35.5095 36.5958Z" fill="url(#paint12_linear_2127_262)"/>
</mask>
<g mask="url(#mask6_2127_262)">
<path d="M35.5095 36.5958C38.397 36.5958 40.7378 34.2621 40.7378 31.3833C40.7378 28.5046 38.397 26.1709 35.5095 26.1709C32.6219 26.1709 30.2811 28.5046 30.2811 31.3833C30.2811 34.2621 32.6219 36.5958 35.5095 36.5958Z" fill="url(#paint13_linear_2127_262)"/>
</g>
<mask id="mask7_2127_262" style="mask-type:alpha" maskUnits="userSpaceOnUse" x="60" y="26" width="12" height="11">
<path d="M65.7905 36.5958C68.6781 36.5958 71.0189 34.2621 71.0189 31.3833C71.0189 28.5046 68.6781 26.1709 65.7905 26.1709C62.903 26.1709 60.5621 28.5046 60.5621 31.3833C60.5621 34.2621 62.903 36.5958 65.7905 36.5958Z" fill="url(#paint14_linear_2127_262)"/>
</mask>
<g mask="url(#mask7_2127_262)">
<path d="M65.7905 36.5958C68.6781 36.5958 71.0189 34.2621 71.0189 31.3833C71.0189 28.5046 68.6781 26.1709 65.7905 26.1709C62.903 26.1709 60.5621 28.5046 60.5621 31.3833C60.5621 34.2621 62.903 36.5958 65.7905 36.5958Z" fill="url(#paint15_linear_2127_262)"/>
</g>
<mask id="mask8_2127_262" style="mask-type:alpha" maskUnits="userSpaceOnUse" x="90" y="26" width="12" height="11">
<path d="M96.0716 36.5958C98.9592 36.5958 101.3 34.2621 101.3 31.3833C101.3 28.5046 98.9592 26.1709 96.0716 26.1709C93.184 26.1709 90.8432 28.5046 90.8432 31.3833C90.8432 34.2621 93.184 36.5958 96.0716 36.5958Z" fill="url(#paint16_linear_2127_262)"/>
</mask>
<g mask="url(#mask8_2127_262)">
<path d="M96.0716 36.5958C98.9592 36.5958 101.3 34.2621 101.3 31.3833C101.3 28.5046 98.9592 26.1709 96.0716 26.1709C93.184 26.1709 90.8432 28.5046 90.8432 31.3833C90.8432 34.2621 93.184 36.5958 96.0716 36.5958Z" fill="url(#paint17_linear_2127_262)"/>
</g>
<mask id="mask9_2127_262" style="mask-type:alpha" maskUnits="userSpaceOnUse" x="121" y="26" width="11" height="11">
<path d="M126.353 36.5958C129.24 36.5958 131.581 34.2621 131.581 31.3833C131.581 28.5046 129.24 26.1709 126.353 26.1709C123.465 26.1709 121.124 28.5046 121.124 31.3833C121.124 34.2621 123.465 36.5958 126.353 36.5958Z" fill="url(#paint18_linear_2127_262)"/>
</mask>
<g mask="url(#mask9_2127_262)">
<path d="M126.353 36.5958C129.24 36.5958 131.581 34.2621 131.581 31.3833C131.581 28.5046 129.24 26.1709 126.353 26.1709C123.465 26.1709 121.124 28.5046 121.124 31.3833C121.124 34.2621 123.465 36.5958 126.353 36.5958Z" fill="url(#paint19_linear_2127_262)"/>
</g>
<mask id="mask10_2127_262" style="mask-type:alpha" maskUnits="userSpaceOnUse" x="0" y="52" width="11" height="11">
<path d="M5.22838 62.7126C8.11594 62.7126 10.4568 60.3789 10.4568 57.5001C10.4568 54.6213 8.11594 52.2876 5.22838 52.2876C2.34082 52.2876 0 54.6213 0 57.5001C0 60.3789 2.34082 62.7126 5.22838 62.7126Z" fill="url(#paint20_linear_2127_262)"/>
</mask>
<g mask="url(#mask10_2127_262)">
<path d="M5.22838 62.7126C8.11594 62.7126 10.4568 60.3789 10.4568 57.5001C10.4568 54.6213 8.11594 52.2876 5.22838 52.2876C2.34082 52.2876 0 54.6213 0 57.5001C0 60.3789 2.34082 62.7126 5.22838 62.7126Z" fill="url(#paint21_linear_2127_262)"/>
</g>
<mask id="mask11_2127_262" style="mask-type:alpha" maskUnits="userSpaceOnUse" x="30" y="52" width="11" height="11">
<path d="M35.5095 62.7126C38.397 62.7126 40.7378 60.3789 40.7378 57.5001C40.7378 54.6213 38.397 52.2876 35.5095 52.2876C32.6219 52.2876 30.2811 54.6213 30.2811 57.5001C30.2811 60.3789 32.6219 62.7126 35.5095 62.7126Z" fill="url(#paint22_linear_2127_262)"/>
</mask>
<g mask="url(#mask11_2127_262)">
<path d="M35.5095 62.7126C38.397 62.7126 40.7378 60.3789 40.7378 57.5001C40.7378 54.6213 38.397 52.2876 35.5095 52.2876C32.6219 52.2876 30.2811 54.6213 30.2811 57.5001C30.2811 60.3789 32.6219 62.7126 35.5095 62.7126Z" fill="url(#paint23_linear_2127_262)"/>
</g>
<mask id="mask12_2127_262" style="mask-type:alpha" maskUnits="userSpaceOnUse" x="60" y="52" width="12" height="11">
<path d="M65.7905 62.7126C68.6781 62.7126 71.0189 60.3789 71.0189 57.5001C71.0189 54.6213 68.6781 52.2876 65.7905 52.2876C62.903 52.2876 60.5621 54.6213 60.5621 57.5001C60.5621 60.3789 62.903 62.7126 65.7905 62.7126Z" fill="url(#paint24_linear_2127_262)"/>
</mask>
<g mask="url(#mask12_2127_262)">
<path d="M65.7905 62.7126C68.6781 62.7126 71.0189 60.3789 71.0189 57.5001C71.0189 54.6213 68.6781 52.2876 65.7905 52.2876C62.903 52.2876 60.5621 54.6213 60.5621 57.5001C60.5621 60.3789 62.903 62.7126 65.7905 62.7126Z" fill="url(#paint25_linear_2127_262)"/>
</g>
<mask id="mask13_2127_262" style="mask-type:alpha" maskUnits="userSpaceOnUse" x="90" y="52" width="12" height="11">
<path d="M96.0716 62.7126C98.9592 62.7126 101.3 60.3789 101.3 57.5001C101.3 54.6213 98.9592 52.2876 96.0716 52.2876C93.184 52.2876 90.8432 54.6213 90.8432 57.5001C90.8432 60.3789 93.184 62.7126 96.0716 62.7126Z" fill="url(#paint26_linear_2127_262)"/>
</mask>
<g mask="url(#mask13_2127_262)">
<path d="M96.0716 62.7126C98.9592 62.7126 101.3 60.3789 101.3 57.5001C101.3 54.6213 98.9592 52.2876 96.0716 52.2876C93.184 52.2876 90.8432 54.6213 90.8432 57.5001C90.8432 60.3789 93.184 62.7126 96.0716 62.7126Z" fill="url(#paint27_linear_2127_262)"/>
</g>
<mask id="mask14_2127_262" style="mask-type:alpha" maskUnits="userSpaceOnUse" x="121" y="52" width="11" height="11">
<path d="M126.353 62.7126C129.24 62.7126 131.581 60.3789 131.581 57.5001C131.581 54.6213 129.24 52.2876 126.353 52.2876C123.465 52.2876 121.124 54.6213 121.124 57.5001C121.124 60.3789 123.465 62.7126 126.353 62.7126Z" fill="url(#paint28_linear_2127_262)"/>
</mask>
<g mask="url(#mask14_2127_262)">
<path d="M126.353 62.7126C129.24 62.7126 131.581 60.3789 131.581 57.5001C131.581 54.6213 129.24 52.2876 126.353 52.2876C123.465 52.2876 121.124 54.6213 121.124 57.5001C121.124 60.3789 123.465 62.7126 126.353 62.7126Z" fill="url(#paint29_linear_2127_262)"/>
</g>
</g>
<defs>
<linearGradient id="paint0_linear_2127_262" x1="54.996" y1="131.134" x2="-16.4057" y2="-50.67" gradientUnits="userSpaceOnUse">
<stop/>
<stop offset="1" stop-color="white"/>
</linearGradient>
<linearGradient id="paint1_linear_2127_262" x1="54.996" y1="131.134" x2="-16.4057" y2="-50.67" gradientUnits="userSpaceOnUse">
<stop stop-color="#97C3F9"/>
<stop offset="1" stop-color="#93C1F9"/>
</linearGradient>
<linearGradient id="paint2_linear_2127_262" x1="81.2005" y1="120.843" x2="9.79889" y2="-60.9613" gradientUnits="userSpaceOnUse">
<stop/>
<stop offset="1" stop-color="white"/>
</linearGradient>
<linearGradient id="paint3_linear_2127_262" x1="81.2005" y1="120.843" x2="9.79889" y2="-60.9613" gradientUnits="userSpaceOnUse">
<stop stop-color="#97C3F9"/>
<stop offset="1" stop-color="#93C1F9"/>
</linearGradient>
<linearGradient id="paint4_linear_2127_262" x1="107.405" y1="110.551" x2="36.0033" y2="-71.2526" gradientUnits="userSpaceOnUse">
<stop/>
<stop offset="1" stop-color="white"/>
</linearGradient>
<linearGradient id="paint5_linear_2127_262" x1="107.405" y1="110.551" x2="36.0033" y2="-71.2526" gradientUnits="userSpaceOnUse">
<stop stop-color="#97C3F9"/>
<stop offset="1" stop-color="#93C1F9"/>
</linearGradient>
<linearGradient id="paint6_linear_2127_262" x1="133.609" y1="100.259" x2="62.2075" y2="-81.5444" gradientUnits="userSpaceOnUse">
<stop/>
<stop offset="1" stop-color="white"/>
</linearGradient>
<linearGradient id="paint7_linear_2127_262" x1="133.609" y1="100.259" x2="62.2075" y2="-81.5444" gradientUnits="userSpaceOnUse">
<stop stop-color="#97C3F9"/>
<stop offset="1" stop-color="#93C1F9"/>
</linearGradient>
<linearGradient id="paint8_linear_2127_262" x1="159.813" y1="89.9679" x2="88.4119" y2="-91.8359" gradientUnits="userSpaceOnUse">
<stop/>
<stop offset="1" stop-color="white"/>
</linearGradient>
<linearGradient id="paint9_linear_2127_262" x1="159.813" y1="89.9679" x2="88.4119" y2="-91.8359" gradientUnits="userSpaceOnUse">
<stop stop-color="#97C3F9"/>
<stop offset="1" stop-color="#93C1F9"/>
</linearGradient>
<linearGradient id="paint10_linear_2127_262" x1="46.0538" y1="134.645" x2="-25.3466" y2="-47.1572" gradientUnits="userSpaceOnUse">
<stop/>
<stop offset="1" stop-color="white"/>
</linearGradient>
<linearGradient id="paint11_linear_2127_262" x1="46.0538" y1="134.645" x2="-25.3466" y2="-47.1572" gradientUnits="userSpaceOnUse">
<stop stop-color="#97C3F9"/>
<stop offset="1" stop-color="#93C1F9"/>
</linearGradient>
<linearGradient id="paint12_linear_2127_262" x1="72.2581" y1="124.354" x2="0.857718" y2="-57.4491" gradientUnits="userSpaceOnUse">
<stop/>
<stop offset="1" stop-color="white"/>
</linearGradient>
<linearGradient id="paint13_linear_2127_262" x1="72.2581" y1="124.354" x2="0.857718" y2="-57.4491" gradientUnits="userSpaceOnUse">
<stop stop-color="#97C3F9"/>
<stop offset="1" stop-color="#93C1F9"/>
</linearGradient>
<linearGradient id="paint14_linear_2127_262" x1="98.4624" y1="114.062" x2="27.0621" y2="-67.7404" gradientUnits="userSpaceOnUse">
<stop/>
<stop offset="1" stop-color="white"/>
</linearGradient>
<linearGradient id="paint15_linear_2127_262" x1="98.4624" y1="114.062" x2="27.0621" y2="-67.7404" gradientUnits="userSpaceOnUse">
<stop stop-color="#97C3F9"/>
<stop offset="1" stop-color="#93C1F9"/>
</linearGradient>
<linearGradient id="paint16_linear_2127_262" x1="124.667" y1="103.771" x2="53.2663" y2="-78.0318" gradientUnits="userSpaceOnUse">
<stop/>
<stop offset="1" stop-color="white"/>
</linearGradient>
<linearGradient id="paint17_linear_2127_262" x1="124.667" y1="103.771" x2="53.2663" y2="-78.0318" gradientUnits="userSpaceOnUse">
<stop stop-color="#97C3F9"/>
<stop offset="1" stop-color="#93C1F9"/>
</linearGradient>
<linearGradient id="paint18_linear_2127_262" x1="150.871" y1="93.4793" x2="79.4707" y2="-88.3232" gradientUnits="userSpaceOnUse">
<stop/>
<stop offset="1" stop-color="white"/>
</linearGradient>
<linearGradient id="paint19_linear_2127_262" x1="150.871" y1="93.4793" x2="79.4707" y2="-88.3232" gradientUnits="userSpaceOnUse">
<stop stop-color="#97C3F9"/>
<stop offset="1" stop-color="#93C1F9"/>
</linearGradient>
<linearGradient id="paint20_linear_2127_262" x1="37.1113" y1="138.158" x2="-34.2903" y2="-43.6457" gradientUnits="userSpaceOnUse">
<stop/>
<stop offset="1" stop-color="white"/>
</linearGradient>
<linearGradient id="paint21_linear_2127_262" x1="37.1113" y1="138.158" x2="-34.2903" y2="-43.6457" gradientUnits="userSpaceOnUse">
<stop stop-color="#97C3F9"/>
<stop offset="1" stop-color="#93C1F9"/>
</linearGradient>
<linearGradient id="paint22_linear_2127_262" x1="63.3157" y1="127.867" x2="-8.0859" y2="-53.9373" gradientUnits="userSpaceOnUse">
<stop/>
<stop offset="1" stop-color="white"/>
</linearGradient>
<linearGradient id="paint23_linear_2127_262" x1="63.3157" y1="127.867" x2="-8.0859" y2="-53.9373" gradientUnits="userSpaceOnUse">
<stop stop-color="#97C3F9"/>
<stop offset="1" stop-color="#93C1F9"/>
</linearGradient>
<linearGradient id="paint24_linear_2127_262" x1="89.5201" y1="117.575" x2="18.1185" y2="-64.2287" gradientUnits="userSpaceOnUse">
<stop/>
<stop offset="1" stop-color="white"/>
</linearGradient>
<linearGradient id="paint25_linear_2127_262" x1="89.5201" y1="117.575" x2="18.1185" y2="-64.2287" gradientUnits="userSpaceOnUse">
<stop stop-color="#97C3F9"/>
<stop offset="1" stop-color="#93C1F9"/>
</linearGradient>
<linearGradient id="paint26_linear_2127_262" x1="115.724" y1="107.283" x2="44.3227" y2="-74.5204" gradientUnits="userSpaceOnUse">
<stop/>
<stop offset="1" stop-color="white"/>
</linearGradient>
<linearGradient id="paint27_linear_2127_262" x1="115.724" y1="107.283" x2="44.3227" y2="-74.5204" gradientUnits="userSpaceOnUse">
<stop stop-color="#97C3F9"/>
<stop offset="1" stop-color="#93C1F9"/>
</linearGradient>
<linearGradient id="paint28_linear_2127_262" x1="141.929" y1="96.992" x2="70.5271" y2="-84.8119" gradientUnits="userSpaceOnUse">
<stop/>
<stop offset="1" stop-color="white"/>
</linearGradient>
<linearGradient id="paint29_linear_2127_262" x1="141.929" y1="96.992" x2="70.5271" y2="-84.8119" gradientUnits="userSpaceOnUse">
<stop stop-color="#97C3F9"/>
<stop offset="1" stop-color="#93C1F9"/>
</linearGradient>
</defs>
</svg>
