<svg width="41" height="115" viewBox="0 0 41 115" fill="none" xmlns="http://www.w3.org/2000/svg">
<g opacity="0.3">
<mask id="mask0_2113_136" style="mask-type:alpha" maskUnits="userSpaceOnUse" x="0" y="0" width="11" height="11">
<path d="M5.22838 10.425C8.11594 10.425 10.4568 8.09121 10.4568 5.21245C10.4568 2.33368 8.11594 0 5.22838 0C2.34082 0 0 2.33368 0 5.21245C0 8.09121 2.34082 10.425 5.22838 10.425Z" fill="url(#paint0_linear_2113_136)"/>
</mask>
<g mask="url(#mask0_2113_136)">
<path d="M5.22838 10.425C8.11594 10.425 10.4568 8.09121 10.4568 5.21245C10.4568 2.33368 8.11594 0 5.22838 0C2.34082 0 0 2.33368 0 5.21245C0 8.09121 2.34082 10.425 5.22838 10.425Z" fill="url(#paint1_linear_2113_136)"/>
</g>
<mask id="mask1_2113_136" style="mask-type:alpha" maskUnits="userSpaceOnUse" x="30" y="0" width="11" height="11">
<path d="M35.5094 10.425C38.397 10.425 40.7378 8.09121 40.7378 5.21245C40.7378 2.33368 38.397 0 35.5094 0C32.6218 0 30.281 2.33368 30.281 5.21245C30.281 8.09121 32.6218 10.425 35.5094 10.425Z" fill="url(#paint2_linear_2113_136)"/>
</mask>
<g mask="url(#mask1_2113_136)">
<path d="M35.5094 10.425C38.397 10.425 40.7378 8.09121 40.7378 5.21245C40.7378 2.33368 38.397 0 35.5094 0C32.6218 0 30.281 2.33368 30.281 5.21245C30.281 8.09121 32.6218 10.425 35.5094 10.425Z" fill="url(#paint3_linear_2113_136)"/>
</g>
<mask id="mask2_2113_136" style="mask-type:alpha" maskUnits="userSpaceOnUse" x="0" y="26" width="11" height="11">
<path d="M5.22838 36.5958C8.11594 36.5958 10.4568 34.2621 10.4568 31.3833C10.4568 28.5046 8.11594 26.1709 5.22838 26.1709C2.34082 26.1709 0 28.5046 0 31.3833C0 34.2621 2.34082 36.5958 5.22838 36.5958Z" fill="url(#paint4_linear_2113_136)"/>
</mask>
<g mask="url(#mask2_2113_136)">
<path d="M5.22838 36.5958C8.11594 36.5958 10.4568 34.2621 10.4568 31.3833C10.4568 28.5046 8.11594 26.1709 5.22838 26.1709C2.34082 26.1709 0 28.5046 0 31.3833C0 34.2621 2.34082 36.5958 5.22838 36.5958Z" fill="url(#paint5_linear_2113_136)"/>
</g>
<mask id="mask3_2113_136" style="mask-type:alpha" maskUnits="userSpaceOnUse" x="30" y="26" width="11" height="11">
<path d="M35.5094 36.5958C38.397 36.5958 40.7378 34.2621 40.7378 31.3833C40.7378 28.5046 38.397 26.1709 35.5094 26.1709C32.6218 26.1709 30.281 28.5046 30.281 31.3833C30.281 34.2621 32.6218 36.5958 35.5094 36.5958Z" fill="url(#paint6_linear_2113_136)"/>
</mask>
<g mask="url(#mask3_2113_136)">
<path d="M35.5094 36.5958C38.397 36.5958 40.7378 34.2621 40.7378 31.3833C40.7378 28.5046 38.397 26.1709 35.5094 26.1709C32.6218 26.1709 30.281 28.5046 30.281 31.3833C30.281 34.2621 32.6218 36.5958 35.5094 36.5958Z" fill="url(#paint7_linear_2113_136)"/>
</g>
<mask id="mask4_2113_136" style="mask-type:alpha" maskUnits="userSpaceOnUse" x="0" y="52" width="11" height="11">
<path d="M5.22838 62.7126C8.11594 62.7126 10.4568 60.3789 10.4568 57.5001C10.4568 54.6213 8.11594 52.2876 5.22838 52.2876C2.34082 52.2876 0 54.6213 0 57.5001C0 60.3789 2.34082 62.7126 5.22838 62.7126Z" fill="url(#paint8_linear_2113_136)"/>
</mask>
<g mask="url(#mask4_2113_136)">
<path d="M5.22838 62.7126C8.11594 62.7126 10.4568 60.3789 10.4568 57.5001C10.4568 54.6213 8.11594 52.2876 5.22838 52.2876C2.34082 52.2876 0 54.6213 0 57.5001C0 60.3789 2.34082 62.7126 5.22838 62.7126Z" fill="url(#paint9_linear_2113_136)"/>
</g>
<mask id="mask5_2113_136" style="mask-type:alpha" maskUnits="userSpaceOnUse" x="30" y="52" width="11" height="11">
<path d="M35.5094 62.7126C38.397 62.7126 40.7378 60.3789 40.7378 57.5001C40.7378 54.6213 38.397 52.2876 35.5094 52.2876C32.6218 52.2876 30.281 54.6213 30.281 57.5001C30.281 60.3789 32.6218 62.7126 35.5094 62.7126Z" fill="url(#paint10_linear_2113_136)"/>
</mask>
<g mask="url(#mask5_2113_136)">
<path d="M35.5094 62.7126C38.397 62.7126 40.7378 60.3789 40.7378 57.5001C40.7378 54.6213 38.397 52.2876 35.5094 52.2876C32.6218 52.2876 30.281 54.6213 30.281 57.5001C30.281 60.3789 32.6218 62.7126 35.5094 62.7126Z" fill="url(#paint11_linear_2113_136)"/>
</g>
<mask id="mask6_2113_136" style="mask-type:alpha" maskUnits="userSpaceOnUse" x="0" y="78" width="11" height="11">
<path d="M5.22838 88.8835C8.11594 88.8835 10.4568 86.5497 10.4568 83.6709C10.4568 80.7922 8.11594 78.4585 5.22838 78.4585C2.34082 78.4585 0 80.7922 0 83.6709C0 86.5497 2.34082 88.8835 5.22838 88.8835Z" fill="url(#paint12_linear_2113_136)"/>
</mask>
<g mask="url(#mask6_2113_136)">
<path d="M5.22838 88.8835C8.11594 88.8835 10.4568 86.5497 10.4568 83.6709C10.4568 80.7922 8.11594 78.4585 5.22838 78.4585C2.34082 78.4585 0 80.7922 0 83.6709C0 86.5497 2.34082 88.8835 5.22838 88.8835Z" fill="url(#paint13_linear_2113_136)"/>
</g>
<mask id="mask7_2113_136" style="mask-type:alpha" maskUnits="userSpaceOnUse" x="30" y="78" width="11" height="11">
<path d="M35.5094 88.8835C38.397 88.8835 40.7378 86.5497 40.7378 83.6709C40.7378 80.7922 38.397 78.4585 35.5094 78.4585C32.6218 78.4585 30.281 80.7922 30.281 83.6709C30.281 86.5497 32.6218 88.8835 35.5094 88.8835Z" fill="url(#paint14_linear_2113_136)"/>
</mask>
<g mask="url(#mask7_2113_136)">
<path d="M35.5094 88.8835C38.397 88.8835 40.7378 86.5497 40.7378 83.6709C40.7378 80.7922 38.397 78.4585 35.5094 78.4585C32.6218 78.4585 30.281 80.7922 30.281 83.6709C30.281 86.5497 32.6218 88.8835 35.5094 88.8835Z" fill="url(#paint15_linear_2113_136)"/>
</g>
<mask id="mask8_2113_136" style="mask-type:alpha" maskUnits="userSpaceOnUse" x="0" y="104" width="11" height="11">
<path d="M5.22838 115C8.11594 115 10.4568 112.666 10.4568 109.787C10.4568 106.909 8.11594 104.575 5.22838 104.575C2.34082 104.575 0 106.909 0 109.787C0 112.666 2.34082 115 5.22838 115Z" fill="url(#paint16_linear_2113_136)"/>
</mask>
<g mask="url(#mask8_2113_136)">
<path d="M5.22838 115C8.11594 115 10.4568 112.666 10.4568 109.787C10.4568 106.909 8.11594 104.575 5.22838 104.575C2.34082 104.575 0 106.909 0 109.787C0 112.666 2.34082 115 5.22838 115Z" fill="url(#paint17_linear_2113_136)"/>
</g>
<mask id="mask9_2113_136" style="mask-type:alpha" maskUnits="userSpaceOnUse" x="30" y="104" width="11" height="11">
<path d="M35.5094 115C38.397 115 40.7378 112.666 40.7378 109.787C40.7378 106.909 38.397 104.575 35.5094 104.575C32.6218 104.575 30.281 106.909 30.281 109.787C30.281 112.666 32.6218 115 35.5094 115Z" fill="url(#paint18_linear_2113_136)"/>
</mask>
<g mask="url(#mask9_2113_136)">
<path d="M35.5094 115C38.397 115 40.7378 112.666 40.7378 109.787C40.7378 106.909 38.397 104.575 35.5094 104.575C32.6218 104.575 30.281 106.909 30.281 109.787C30.281 112.666 32.6218 115 35.5094 115Z" fill="url(#paint19_linear_2113_136)"/>
</g>
</g>
<defs>
<linearGradient id="paint0_linear_2113_136" x1="54.996" y1="131.134" x2="-16.4057" y2="-50.67" gradientUnits="userSpaceOnUse">
<stop/>
<stop offset="1" stop-color="white"/>
</linearGradient>
<linearGradient id="paint1_linear_2113_136" x1="54.996" y1="131.134" x2="-16.4057" y2="-50.67" gradientUnits="userSpaceOnUse">
<stop stop-color="#97C3F9"/>
<stop offset="1" stop-color="#93C1F9"/>
</linearGradient>
<linearGradient id="paint2_linear_2113_136" x1="81.2005" y1="120.843" x2="9.79883" y2="-60.9613" gradientUnits="userSpaceOnUse">
<stop/>
<stop offset="1" stop-color="white"/>
</linearGradient>
<linearGradient id="paint3_linear_2113_136" x1="81.2005" y1="120.843" x2="9.79883" y2="-60.9613" gradientUnits="userSpaceOnUse">
<stop stop-color="#97C3F9"/>
<stop offset="1" stop-color="#93C1F9"/>
</linearGradient>
<linearGradient id="paint4_linear_2113_136" x1="46.0538" y1="134.645" x2="-25.3466" y2="-47.1572" gradientUnits="userSpaceOnUse">
<stop/>
<stop offset="1" stop-color="white"/>
</linearGradient>
<linearGradient id="paint5_linear_2113_136" x1="46.0538" y1="134.645" x2="-25.3466" y2="-47.1572" gradientUnits="userSpaceOnUse">
<stop stop-color="#97C3F9"/>
<stop offset="1" stop-color="#93C1F9"/>
</linearGradient>
<linearGradient id="paint6_linear_2113_136" x1="72.258" y1="124.354" x2="0.857657" y2="-57.4491" gradientUnits="userSpaceOnUse">
<stop/>
<stop offset="1" stop-color="white"/>
</linearGradient>
<linearGradient id="paint7_linear_2113_136" x1="72.258" y1="124.354" x2="0.857657" y2="-57.4491" gradientUnits="userSpaceOnUse">
<stop stop-color="#97C3F9"/>
<stop offset="1" stop-color="#93C1F9"/>
</linearGradient>
<linearGradient id="paint8_linear_2113_136" x1="37.1113" y1="138.158" x2="-34.2903" y2="-43.6457" gradientUnits="userSpaceOnUse">
<stop/>
<stop offset="1" stop-color="white"/>
</linearGradient>
<linearGradient id="paint9_linear_2113_136" x1="37.1113" y1="138.158" x2="-34.2903" y2="-43.6457" gradientUnits="userSpaceOnUse">
<stop stop-color="#97C3F9"/>
<stop offset="1" stop-color="#93C1F9"/>
</linearGradient>
<linearGradient id="paint10_linear_2113_136" x1="63.3157" y1="127.867" x2="-8.08596" y2="-53.9373" gradientUnits="userSpaceOnUse">
<stop/>
<stop offset="1" stop-color="white"/>
</linearGradient>
<linearGradient id="paint11_linear_2113_136" x1="63.3157" y1="127.867" x2="-8.08596" y2="-53.9373" gradientUnits="userSpaceOnUse">
<stop stop-color="#97C3F9"/>
<stop offset="1" stop-color="#93C1F9"/>
</linearGradient>
<linearGradient id="paint12_linear_2113_136" x1="28.169" y1="141.67" x2="-43.2327" y2="-40.1338" gradientUnits="userSpaceOnUse">
<stop/>
<stop offset="1" stop-color="white"/>
</linearGradient>
<linearGradient id="paint13_linear_2113_136" x1="28.169" y1="141.67" x2="-43.2327" y2="-40.1338" gradientUnits="userSpaceOnUse">
<stop stop-color="#97C3F9"/>
<stop offset="1" stop-color="#93C1F9"/>
</linearGradient>
<linearGradient id="paint14_linear_2113_136" x1="54.3733" y1="131.379" x2="-17.0284" y2="-50.4253" gradientUnits="userSpaceOnUse">
<stop/>
<stop offset="1" stop-color="white"/>
</linearGradient>
<linearGradient id="paint15_linear_2113_136" x1="54.3733" y1="131.379" x2="-17.0284" y2="-50.4253" gradientUnits="userSpaceOnUse">
<stop stop-color="#97C3F9"/>
<stop offset="1" stop-color="#93C1F9"/>
</linearGradient>
<linearGradient id="paint16_linear_2113_136" x1="19.2266" y1="145.182" x2="-52.1751" y2="-36.622" gradientUnits="userSpaceOnUse">
<stop/>
<stop offset="1" stop-color="white"/>
</linearGradient>
<linearGradient id="paint17_linear_2113_136" x1="19.2266" y1="145.182" x2="-52.1751" y2="-36.622" gradientUnits="userSpaceOnUse">
<stop stop-color="#97C3F9"/>
<stop offset="1" stop-color="#93C1F9"/>
</linearGradient>
<linearGradient id="paint18_linear_2113_136" x1="45.4309" y1="134.89" x2="-25.9707" y2="-46.9135" gradientUnits="userSpaceOnUse">
<stop/>
<stop offset="1" stop-color="white"/>
</linearGradient>
<linearGradient id="paint19_linear_2113_136" x1="45.4309" y1="134.89" x2="-25.9707" y2="-46.9135" gradientUnits="userSpaceOnUse">
<stop stop-color="#97C3F9"/>
<stop offset="1" stop-color="#93C1F9"/>
</linearGradient>
</defs>
</svg>
