<svg width="72" height="89" viewBox="0 0 72 89" fill="none" xmlns="http://www.w3.org/2000/svg">
<g opacity="0.26">
<mask id="mask0_2113_263" style="mask-type:alpha" maskUnits="userSpaceOnUse" x="0" y="0" width="11" height="11">
<path d="M5.22838 10.5958C8.11594 10.5958 10.4568 8.26208 10.4568 5.38333C10.4568 2.50457 8.11594 0.170898 5.22838 0.170898C2.34082 0.170898 0 2.50457 0 5.38333C0 8.26208 2.34082 10.5958 5.22838 10.5958Z" fill="url(#paint0_linear_2113_263)"/>
</mask>
<g mask="url(#mask0_2113_263)">
<path d="M5.22838 10.5958C8.11594 10.5958 10.4568 8.26208 10.4568 5.38333C10.4568 2.50457 8.11594 0.170898 5.22838 0.170898C2.34082 0.170898 0 2.50457 0 5.38333C0 8.26208 2.34082 10.5958 5.22838 10.5958Z" fill="url(#paint1_linear_2113_263)"/>
</g>
<mask id="mask1_2113_263" style="mask-type:alpha" maskUnits="userSpaceOnUse" x="30" y="0" width="11" height="11">
<path d="M35.5094 10.5958C38.397 10.5958 40.7378 8.26208 40.7378 5.38333C40.7378 2.50457 38.397 0.170898 35.5094 0.170898C32.6218 0.170898 30.281 2.50457 30.281 5.38333C30.281 8.26208 32.6218 10.5958 35.5094 10.5958Z" fill="url(#paint2_linear_2113_263)"/>
</mask>
<g mask="url(#mask1_2113_263)">
<path d="M35.5094 10.5958C38.397 10.5958 40.7378 8.26208 40.7378 5.38333C40.7378 2.50457 38.397 0.170898 35.5094 0.170898C32.6218 0.170898 30.281 2.50457 30.281 5.38333C30.281 8.26208 32.6218 10.5958 35.5094 10.5958Z" fill="url(#paint3_linear_2113_263)"/>
</g>
<mask id="mask2_2113_263" style="mask-type:alpha" maskUnits="userSpaceOnUse" x="60" y="0" width="12" height="11">
<path d="M65.7904 10.5958C68.678 10.5958 71.0188 8.26208 71.0188 5.38333C71.0188 2.50457 68.678 0.170898 65.7904 0.170898C62.9028 0.170898 60.562 2.50457 60.562 5.38333C60.562 8.26208 62.9028 10.5958 65.7904 10.5958Z" fill="url(#paint4_linear_2113_263)"/>
</mask>
<g mask="url(#mask2_2113_263)">
<path d="M65.7904 10.5958C68.678 10.5958 71.0188 8.26208 71.0188 5.38333C71.0188 2.50457 68.678 0.170898 65.7904 0.170898C62.9028 0.170898 60.562 2.50457 60.562 5.38333C60.562 8.26208 62.9028 10.5958 65.7904 10.5958Z" fill="url(#paint5_linear_2113_263)"/>
</g>
<mask id="mask3_2113_263" style="mask-type:alpha" maskUnits="userSpaceOnUse" x="0" y="26" width="11" height="11">
<path d="M5.22838 36.7123C8.11594 36.7123 10.4568 34.3786 10.4568 31.4998C10.4568 28.6211 8.11594 26.2874 5.22838 26.2874C2.34082 26.2874 0 28.6211 0 31.4998C0 34.3786 2.34082 36.7123 5.22838 36.7123Z" fill="url(#paint6_linear_2113_263)"/>
</mask>
<g mask="url(#mask3_2113_263)">
<path d="M5.22838 36.7123C8.11594 36.7123 10.4568 34.3786 10.4568 31.4998C10.4568 28.6211 8.11594 26.2874 5.22838 26.2874C2.34082 26.2874 0 28.6211 0 31.4998C0 34.3786 2.34082 36.7123 5.22838 36.7123Z" fill="url(#paint7_linear_2113_263)"/>
</g>
<mask id="mask4_2113_263" style="mask-type:alpha" maskUnits="userSpaceOnUse" x="30" y="26" width="11" height="11">
<path d="M35.5094 36.7123C38.397 36.7123 40.7378 34.3786 40.7378 31.4998C40.7378 28.6211 38.397 26.2874 35.5094 26.2874C32.6218 26.2874 30.281 28.6211 30.281 31.4998C30.281 34.3786 32.6218 36.7123 35.5094 36.7123Z" fill="url(#paint8_linear_2113_263)"/>
</mask>
<g mask="url(#mask4_2113_263)">
<path d="M35.5094 36.7123C38.397 36.7123 40.7378 34.3786 40.7378 31.4998C40.7378 28.6211 38.397 26.2874 35.5094 26.2874C32.6218 26.2874 30.281 28.6211 30.281 31.4998C30.281 34.3786 32.6218 36.7123 35.5094 36.7123Z" fill="url(#paint9_linear_2113_263)"/>
</g>
<mask id="mask5_2113_263" style="mask-type:alpha" maskUnits="userSpaceOnUse" x="60" y="26" width="12" height="11">
<path d="M65.7904 36.7123C68.678 36.7123 71.0188 34.3786 71.0188 31.4998C71.0188 28.6211 68.678 26.2874 65.7904 26.2874C62.9028 26.2874 60.562 28.6211 60.562 31.4998C60.562 34.3786 62.9028 36.7123 65.7904 36.7123Z" fill="url(#paint10_linear_2113_263)"/>
</mask>
<g mask="url(#mask5_2113_263)">
<path d="M65.7904 36.7123C68.678 36.7123 71.0188 34.3786 71.0188 31.4998C71.0188 28.6211 68.678 26.2874 65.7904 26.2874C62.9028 26.2874 60.562 28.6211 60.562 31.4998C60.562 34.3786 62.9028 36.7123 65.7904 36.7123Z" fill="url(#paint11_linear_2113_263)"/>
</g>
<mask id="mask6_2113_263" style="mask-type:alpha" maskUnits="userSpaceOnUse" x="0" y="52" width="11" height="11">
<path d="M5.22838 62.8832C8.11594 62.8832 10.4568 60.5495 10.4568 57.6707C10.4568 54.7919 8.11594 52.4583 5.22838 52.4583C2.34082 52.4583 0 54.7919 0 57.6707C0 60.5495 2.34082 62.8832 5.22838 62.8832Z" fill="url(#paint12_linear_2113_263)"/>
</mask>
<g mask="url(#mask6_2113_263)">
<path d="M5.22838 62.8832C8.11594 62.8832 10.4568 60.5495 10.4568 57.6707C10.4568 54.7919 8.11594 52.4583 5.22838 52.4583C2.34082 52.4583 0 54.7919 0 57.6707C0 60.5495 2.34082 62.8832 5.22838 62.8832Z" fill="url(#paint13_linear_2113_263)"/>
</g>
<mask id="mask7_2113_263" style="mask-type:alpha" maskUnits="userSpaceOnUse" x="30" y="52" width="11" height="11">
<path d="M35.5094 62.8832C38.397 62.8832 40.7378 60.5495 40.7378 57.6707C40.7378 54.7919 38.397 52.4583 35.5094 52.4583C32.6218 52.4583 30.281 54.7919 30.281 57.6707C30.281 60.5495 32.6218 62.8832 35.5094 62.8832Z" fill="url(#paint14_linear_2113_263)"/>
</mask>
<g mask="url(#mask7_2113_263)">
<path d="M35.5094 62.8832C38.397 62.8832 40.7378 60.5495 40.7378 57.6707C40.7378 54.7919 38.397 52.4583 35.5094 52.4583C32.6218 52.4583 30.281 54.7919 30.281 57.6707C30.281 60.5495 32.6218 62.8832 35.5094 62.8832Z" fill="url(#paint15_linear_2113_263)"/>
</g>
<mask id="mask8_2113_263" style="mask-type:alpha" maskUnits="userSpaceOnUse" x="60" y="52" width="12" height="11">
<path d="M65.7904 62.8832C68.678 62.8832 71.0188 60.5495 71.0188 57.6707C71.0188 54.7919 68.678 52.4583 65.7904 52.4583C62.9028 52.4583 60.562 54.7919 60.562 57.6707C60.562 60.5495 62.9028 62.8832 65.7904 62.8832Z" fill="url(#paint16_linear_2113_263)"/>
</mask>
<g mask="url(#mask8_2113_263)">
<path d="M65.7904 62.8832C68.678 62.8832 71.0188 60.5495 71.0188 57.6707C71.0188 54.7919 68.678 52.4583 65.7904 52.4583C62.9028 52.4583 60.562 54.7919 60.562 57.6707C60.562 60.5495 62.9028 62.8832 65.7904 62.8832Z" fill="url(#paint17_linear_2113_263)"/>
</g>
<mask id="mask9_2113_263" style="mask-type:alpha" maskUnits="userSpaceOnUse" x="0" y="78" width="11" height="11">
<path d="M5.22838 88.9999C8.11594 88.9999 10.4568 86.6662 10.4568 83.7875C10.4568 80.9087 8.11594 78.575 5.22838 78.575C2.34082 78.575 0 80.9087 0 83.7875C0 86.6662 2.34082 88.9999 5.22838 88.9999Z" fill="url(#paint18_linear_2113_263)"/>
</mask>
<g mask="url(#mask9_2113_263)">
<path d="M5.22838 88.9999C8.11594 88.9999 10.4568 86.6662 10.4568 83.7875C10.4568 80.9087 8.11594 78.575 5.22838 78.575C2.34082 78.575 0 80.9087 0 83.7875C0 86.6662 2.34082 88.9999 5.22838 88.9999Z" fill="url(#paint19_linear_2113_263)"/>
</g>
<mask id="mask10_2113_263" style="mask-type:alpha" maskUnits="userSpaceOnUse" x="30" y="78" width="11" height="11">
<path d="M35.5094 88.9999C38.397 88.9999 40.7378 86.6662 40.7378 83.7875C40.7378 80.9087 38.397 78.575 35.5094 78.575C32.6218 78.575 30.281 80.9087 30.281 83.7875C30.281 86.6662 32.6218 88.9999 35.5094 88.9999Z" fill="url(#paint20_linear_2113_263)"/>
</mask>
<g mask="url(#mask10_2113_263)">
<path d="M35.5094 88.9999C38.397 88.9999 40.7378 86.6662 40.7378 83.7875C40.7378 80.9087 38.397 78.575 35.5094 78.575C32.6218 78.575 30.281 80.9087 30.281 83.7875C30.281 86.6662 32.6218 88.9999 35.5094 88.9999Z" fill="url(#paint21_linear_2113_263)"/>
</g>
<mask id="mask11_2113_263" style="mask-type:alpha" maskUnits="userSpaceOnUse" x="60" y="78" width="12" height="11">
<path d="M65.7904 88.9999C68.678 88.9999 71.0188 86.6662 71.0188 83.7875C71.0188 80.9087 68.678 78.575 65.7904 78.575C62.9028 78.575 60.562 80.9087 60.562 83.7875C60.562 86.6662 62.9028 88.9999 65.7904 88.9999Z" fill="url(#paint22_linear_2113_263)"/>
</mask>
<g mask="url(#mask11_2113_263)">
<path d="M65.7904 88.9999C68.678 88.9999 71.0188 86.6662 71.0188 83.7875C71.0188 80.9087 68.678 78.575 65.7904 78.575C62.9028 78.575 60.562 80.9087 60.562 83.7875C60.562 86.6662 62.9028 88.9999 65.7904 88.9999Z" fill="url(#paint23_linear_2113_263)"/>
</g>
</g>
<defs>
<linearGradient id="paint0_linear_2113_263" x1="54.996" y1="131.303" x2="-16.4045" y2="-50.4991" gradientUnits="userSpaceOnUse">
<stop stop-color="white"/>
<stop offset="1" stop-color="white"/>
</linearGradient>
<linearGradient id="paint1_linear_2113_263" x1="54.996" y1="131.303" x2="-16.4045" y2="-50.4991" gradientUnits="userSpaceOnUse">
<stop stop-color="white"/>
<stop offset="1" stop-color="white"/>
</linearGradient>
<linearGradient id="paint2_linear_2113_263" x1="85.2771" y1="131.303" x2="13.8767" y2="-50.4991" gradientUnits="userSpaceOnUse">
<stop stop-color="white"/>
<stop offset="1" stop-color="white"/>
</linearGradient>
<linearGradient id="paint3_linear_2113_263" x1="85.2771" y1="131.303" x2="13.8767" y2="-50.4991" gradientUnits="userSpaceOnUse">
<stop stop-color="white"/>
<stop offset="1" stop-color="white"/>
</linearGradient>
<linearGradient id="paint4_linear_2113_263" x1="115.558" y1="131.303" x2="44.1577" y2="-50.4991" gradientUnits="userSpaceOnUse">
<stop stop-color="white"/>
<stop offset="1" stop-color="white"/>
</linearGradient>
<linearGradient id="paint5_linear_2113_263" x1="115.558" y1="131.303" x2="44.1577" y2="-50.4991" gradientUnits="userSpaceOnUse">
<stop stop-color="white"/>
<stop offset="1" stop-color="white"/>
</linearGradient>
<linearGradient id="paint6_linear_2113_263" x1="54.996" y1="157.421" x2="-16.4057" y2="-24.3826" gradientUnits="userSpaceOnUse">
<stop stop-color="white"/>
<stop offset="1" stop-color="white"/>
</linearGradient>
<linearGradient id="paint7_linear_2113_263" x1="54.996" y1="157.421" x2="-16.4057" y2="-24.3826" gradientUnits="userSpaceOnUse">
<stop stop-color="white"/>
<stop offset="1" stop-color="white"/>
</linearGradient>
<linearGradient id="paint8_linear_2113_263" x1="85.2771" y1="157.421" x2="13.8754" y2="-24.3827" gradientUnits="userSpaceOnUse">
<stop stop-color="white"/>
<stop offset="1" stop-color="white"/>
</linearGradient>
<linearGradient id="paint9_linear_2113_263" x1="85.2771" y1="157.421" x2="13.8754" y2="-24.3827" gradientUnits="userSpaceOnUse">
<stop stop-color="white"/>
<stop offset="1" stop-color="white"/>
</linearGradient>
<linearGradient id="paint10_linear_2113_263" x1="115.558" y1="157.421" x2="44.1565" y2="-24.3827" gradientUnits="userSpaceOnUse">
<stop stop-color="white"/>
<stop offset="1" stop-color="white"/>
</linearGradient>
<linearGradient id="paint11_linear_2113_263" x1="115.558" y1="157.421" x2="44.1565" y2="-24.3827" gradientUnits="userSpaceOnUse">
<stop stop-color="white"/>
<stop offset="1" stop-color="white"/>
</linearGradient>
<linearGradient id="paint12_linear_2113_263" x1="54.996" y1="183.592" x2="-16.4057" y2="1.78827" gradientUnits="userSpaceOnUse">
<stop stop-color="white"/>
<stop offset="1" stop-color="white"/>
</linearGradient>
<linearGradient id="paint13_linear_2113_263" x1="54.996" y1="183.592" x2="-16.4057" y2="1.78827" gradientUnits="userSpaceOnUse">
<stop stop-color="white"/>
<stop offset="1" stop-color="white"/>
</linearGradient>
<linearGradient id="paint14_linear_2113_263" x1="85.2771" y1="183.592" x2="13.8754" y2="1.78821" gradientUnits="userSpaceOnUse">
<stop stop-color="white"/>
<stop offset="1" stop-color="white"/>
</linearGradient>
<linearGradient id="paint15_linear_2113_263" x1="85.2771" y1="183.592" x2="13.8754" y2="1.78821" gradientUnits="userSpaceOnUse">
<stop stop-color="white"/>
<stop offset="1" stop-color="white"/>
</linearGradient>
<linearGradient id="paint16_linear_2113_263" x1="115.558" y1="183.592" x2="44.1565" y2="1.78821" gradientUnits="userSpaceOnUse">
<stop stop-color="white"/>
<stop offset="1" stop-color="white"/>
</linearGradient>
<linearGradient id="paint17_linear_2113_263" x1="115.558" y1="183.592" x2="44.1565" y2="1.78821" gradientUnits="userSpaceOnUse">
<stop stop-color="white"/>
<stop offset="1" stop-color="white"/>
</linearGradient>
<linearGradient id="paint18_linear_2113_263" x1="54.996" y1="209.709" x2="-16.4057" y2="27.905" gradientUnits="userSpaceOnUse">
<stop stop-color="white"/>
<stop offset="1" stop-color="white"/>
</linearGradient>
<linearGradient id="paint19_linear_2113_263" x1="54.996" y1="209.709" x2="-16.4057" y2="27.905" gradientUnits="userSpaceOnUse">
<stop stop-color="white"/>
<stop offset="1" stop-color="white"/>
</linearGradient>
<linearGradient id="paint20_linear_2113_263" x1="85.2771" y1="209.709" x2="13.8754" y2="27.9049" gradientUnits="userSpaceOnUse">
<stop stop-color="white"/>
<stop offset="1" stop-color="white"/>
</linearGradient>
<linearGradient id="paint21_linear_2113_263" x1="85.2771" y1="209.709" x2="13.8754" y2="27.9049" gradientUnits="userSpaceOnUse">
<stop stop-color="white"/>
<stop offset="1" stop-color="white"/>
</linearGradient>
<linearGradient id="paint22_linear_2113_263" x1="115.558" y1="209.709" x2="44.1565" y2="27.9049" gradientUnits="userSpaceOnUse">
<stop stop-color="white"/>
<stop offset="1" stop-color="white"/>
</linearGradient>
<linearGradient id="paint23_linear_2113_263" x1="115.558" y1="209.709" x2="44.1565" y2="27.9049" gradientUnits="userSpaceOnUse">
<stop stop-color="white"/>
<stop offset="1" stop-color="white"/>
</linearGradient>
</defs>
</svg>
