<svg width="102" height="89" viewBox="0 0 102 89" fill="none" xmlns="http://www.w3.org/2000/svg">
<g opacity="0.26">
<mask id="mask0_2125_10" style="mask-type:alpha" maskUnits="userSpaceOnUse" x="0" y="0" width="11" height="11">
<path d="M5.50946 10.425C8.39701 10.425 10.7378 8.09121 10.7378 5.21245C10.7378 2.33368 8.39701 0 5.50946 0C2.6219 0 0.281067 2.33368 0.281067 5.21245C0.281067 8.09121 2.6219 10.425 5.50946 10.425Z" fill="url(#paint0_linear_2125_10)"/>
</mask>
<g mask="url(#mask0_2125_10)">
<path d="M5.50946 10.425C8.39701 10.425 10.7378 8.09121 10.7378 5.21245C10.7378 2.33368 8.39701 0 5.50946 0C2.6219 0 0.281067 2.33368 0.281067 5.21245C0.281067 8.09121 2.6219 10.425 5.50946 10.425Z" fill="url(#paint1_linear_2125_10)"/>
</g>
<mask id="mask1_2125_10" style="mask-type:alpha" maskUnits="userSpaceOnUse" x="30" y="0" width="12" height="11">
<path d="M35.7905 10.425C38.6781 10.425 41.0189 8.09121 41.0189 5.21245C41.0189 2.33368 38.6781 0 35.7905 0C32.903 0 30.5621 2.33368 30.5621 5.21245C30.5621 8.09121 32.903 10.425 35.7905 10.425Z" fill="url(#paint2_linear_2125_10)"/>
</mask>
<g mask="url(#mask1_2125_10)">
<path d="M35.7905 10.425C38.6781 10.425 41.0189 8.09121 41.0189 5.21245C41.0189 2.33368 38.6781 0 35.7905 0C32.903 0 30.5621 2.33368 30.5621 5.21245C30.5621 8.09121 32.903 10.425 35.7905 10.425Z" fill="url(#paint3_linear_2125_10)"/>
</g>
<mask id="mask2_2125_10" style="mask-type:alpha" maskUnits="userSpaceOnUse" x="60" y="0" width="12" height="11">
<path d="M66.0716 10.425C68.9592 10.425 71.3 8.09121 71.3 5.21245C71.3 2.33368 68.9592 0 66.0716 0C63.184 0 60.8432 2.33368 60.8432 5.21245C60.8432 8.09121 63.184 10.425 66.0716 10.425Z" fill="url(#paint4_linear_2125_10)"/>
</mask>
<g mask="url(#mask2_2125_10)">
<path d="M66.0716 10.425C68.9592 10.425 71.3 8.09121 71.3 5.21245C71.3 2.33368 68.9592 0 66.0716 0C63.184 0 60.8432 2.33368 60.8432 5.21245C60.8432 8.09121 63.184 10.425 66.0716 10.425Z" fill="url(#paint5_linear_2125_10)"/>
</g>
<mask id="mask3_2125_10" style="mask-type:alpha" maskUnits="userSpaceOnUse" x="91" y="0" width="11" height="11">
<path d="M96.3526 10.425C99.2402 10.425 101.581 8.09121 101.581 5.21245C101.581 2.33368 99.2402 0 96.3526 0C93.4651 0 91.1243 2.33368 91.1243 5.21245C91.1243 8.09121 93.4651 10.425 96.3526 10.425Z" fill="url(#paint6_linear_2125_10)"/>
</mask>
<g mask="url(#mask3_2125_10)">
<path d="M96.3526 10.425C99.2402 10.425 101.581 8.09121 101.581 5.21245C101.581 2.33368 99.2402 0 96.3526 0C93.4651 0 91.1243 2.33368 91.1243 5.21245C91.1243 8.09121 93.4651 10.425 96.3526 10.425Z" fill="url(#paint7_linear_2125_10)"/>
</g>
<mask id="mask4_2125_10" style="mask-type:alpha" maskUnits="userSpaceOnUse" x="0" y="26" width="11" height="11">
<path d="M5.50946 36.5958C8.39701 36.5958 10.7378 34.2621 10.7378 31.3833C10.7378 28.5046 8.39701 26.1709 5.50946 26.1709C2.6219 26.1709 0.281067 28.5046 0.281067 31.3833C0.281067 34.2621 2.6219 36.5958 5.50946 36.5958Z" fill="url(#paint8_linear_2125_10)"/>
</mask>
<g mask="url(#mask4_2125_10)">
<path d="M5.50946 36.5958C8.39701 36.5958 10.7378 34.2621 10.7378 31.3833C10.7378 28.5046 8.39701 26.1709 5.50946 26.1709C2.6219 26.1709 0.281067 28.5046 0.281067 31.3833C0.281067 34.2621 2.6219 36.5958 5.50946 36.5958Z" fill="url(#paint9_linear_2125_10)"/>
</g>
<mask id="mask5_2125_10" style="mask-type:alpha" maskUnits="userSpaceOnUse" x="30" y="26" width="12" height="11">
<path d="M35.7905 36.5958C38.6781 36.5958 41.0189 34.2621 41.0189 31.3833C41.0189 28.5046 38.6781 26.1709 35.7905 26.1709C32.903 26.1709 30.5621 28.5046 30.5621 31.3833C30.5621 34.2621 32.903 36.5958 35.7905 36.5958Z" fill="url(#paint10_linear_2125_10)"/>
</mask>
<g mask="url(#mask5_2125_10)">
<path d="M35.7905 36.5958C38.6781 36.5958 41.0189 34.2621 41.0189 31.3833C41.0189 28.5046 38.6781 26.1709 35.7905 26.1709C32.903 26.1709 30.5621 28.5046 30.5621 31.3833C30.5621 34.2621 32.903 36.5958 35.7905 36.5958Z" fill="url(#paint11_linear_2125_10)"/>
</g>
<mask id="mask6_2125_10" style="mask-type:alpha" maskUnits="userSpaceOnUse" x="60" y="26" width="12" height="11">
<path d="M66.0716 36.5958C68.9592 36.5958 71.3 34.2621 71.3 31.3833C71.3 28.5046 68.9592 26.1709 66.0716 26.1709C63.184 26.1709 60.8432 28.5046 60.8432 31.3833C60.8432 34.2621 63.184 36.5958 66.0716 36.5958Z" fill="url(#paint12_linear_2125_10)"/>
</mask>
<g mask="url(#mask6_2125_10)">
<path d="M66.0716 36.5958C68.9592 36.5958 71.3 34.2621 71.3 31.3833C71.3 28.5046 68.9592 26.1709 66.0716 26.1709C63.184 26.1709 60.8432 28.5046 60.8432 31.3833C60.8432 34.2621 63.184 36.5958 66.0716 36.5958Z" fill="url(#paint13_linear_2125_10)"/>
</g>
<mask id="mask7_2125_10" style="mask-type:alpha" maskUnits="userSpaceOnUse" x="91" y="26" width="11" height="11">
<path d="M96.3526 36.5958C99.2402 36.5958 101.581 34.2621 101.581 31.3833C101.581 28.5046 99.2402 26.1709 96.3526 26.1709C93.4651 26.1709 91.1243 28.5046 91.1243 31.3833C91.1243 34.2621 93.4651 36.5958 96.3526 36.5958Z" fill="url(#paint14_linear_2125_10)"/>
</mask>
<g mask="url(#mask7_2125_10)">
<path d="M96.3526 36.5958C99.2402 36.5958 101.581 34.2621 101.581 31.3833C101.581 28.5046 99.2402 26.1709 96.3526 26.1709C93.4651 26.1709 91.1243 28.5046 91.1243 31.3833C91.1243 34.2621 93.4651 36.5958 96.3526 36.5958Z" fill="url(#paint15_linear_2125_10)"/>
</g>
<mask id="mask8_2125_10" style="mask-type:alpha" maskUnits="userSpaceOnUse" x="0" y="52" width="11" height="11">
<path d="M5.50946 62.7126C8.39701 62.7126 10.7378 60.3789 10.7378 57.5001C10.7378 54.6213 8.39701 52.2876 5.50946 52.2876C2.6219 52.2876 0.281067 54.6213 0.281067 57.5001C0.281067 60.3789 2.6219 62.7126 5.50946 62.7126Z" fill="url(#paint16_linear_2125_10)"/>
</mask>
<g mask="url(#mask8_2125_10)">
<path d="M5.50946 62.7126C8.39701 62.7126 10.7378 60.3789 10.7378 57.5001C10.7378 54.6213 8.39701 52.2876 5.50946 52.2876C2.6219 52.2876 0.281067 54.6213 0.281067 57.5001C0.281067 60.3789 2.6219 62.7126 5.50946 62.7126Z" fill="url(#paint17_linear_2125_10)"/>
</g>
<mask id="mask9_2125_10" style="mask-type:alpha" maskUnits="userSpaceOnUse" x="30" y="52" width="12" height="11">
<path d="M35.7905 62.7126C38.6781 62.7126 41.0189 60.3789 41.0189 57.5001C41.0189 54.6213 38.6781 52.2876 35.7905 52.2876C32.903 52.2876 30.5621 54.6213 30.5621 57.5001C30.5621 60.3789 32.903 62.7126 35.7905 62.7126Z" fill="url(#paint18_linear_2125_10)"/>
</mask>
<g mask="url(#mask9_2125_10)">
<path d="M35.7905 62.7126C38.6781 62.7126 41.0189 60.3789 41.0189 57.5001C41.0189 54.6213 38.6781 52.2876 35.7905 52.2876C32.903 52.2876 30.5621 54.6213 30.5621 57.5001C30.5621 60.3789 32.903 62.7126 35.7905 62.7126Z" fill="url(#paint19_linear_2125_10)"/>
</g>
<mask id="mask10_2125_10" style="mask-type:alpha" maskUnits="userSpaceOnUse" x="60" y="52" width="12" height="11">
<path d="M66.0716 62.7126C68.9592 62.7126 71.3 60.3789 71.3 57.5001C71.3 54.6213 68.9592 52.2876 66.0716 52.2876C63.184 52.2876 60.8432 54.6213 60.8432 57.5001C60.8432 60.3789 63.184 62.7126 66.0716 62.7126Z" fill="url(#paint20_linear_2125_10)"/>
</mask>
<g mask="url(#mask10_2125_10)">
<path d="M66.0716 62.7126C68.9592 62.7126 71.3 60.3789 71.3 57.5001C71.3 54.6213 68.9592 52.2876 66.0716 52.2876C63.184 52.2876 60.8432 54.6213 60.8432 57.5001C60.8432 60.3789 63.184 62.7126 66.0716 62.7126Z" fill="url(#paint21_linear_2125_10)"/>
</g>
<mask id="mask11_2125_10" style="mask-type:alpha" maskUnits="userSpaceOnUse" x="91" y="52" width="11" height="11">
<path d="M96.3526 62.7126C99.2402 62.7126 101.581 60.3789 101.581 57.5001C101.581 54.6213 99.2402 52.2876 96.3526 52.2876C93.4651 52.2876 91.1243 54.6213 91.1243 57.5001C91.1243 60.3789 93.4651 62.7126 96.3526 62.7126Z" fill="url(#paint22_linear_2125_10)"/>
</mask>
<g mask="url(#mask11_2125_10)">
<path d="M96.3526 62.7126C99.2402 62.7126 101.581 60.3789 101.581 57.5001C101.581 54.6213 99.2402 52.2876 96.3526 52.2876C93.4651 52.2876 91.1243 54.6213 91.1243 57.5001C91.1243 60.3789 93.4651 62.7126 96.3526 62.7126Z" fill="url(#paint23_linear_2125_10)"/>
</g>
<mask id="mask12_2125_10" style="mask-type:alpha" maskUnits="userSpaceOnUse" x="0" y="78" width="11" height="11">
<path d="M5.50946 88.8835C8.39701 88.8835 10.7378 86.5497 10.7378 83.6709C10.7378 80.7922 8.39701 78.4585 5.50946 78.4585C2.6219 78.4585 0.281067 80.7922 0.281067 83.6709C0.281067 86.5497 2.6219 88.8835 5.50946 88.8835Z" fill="url(#paint24_linear_2125_10)"/>
</mask>
<g mask="url(#mask12_2125_10)">
<path d="M5.50946 88.8835C8.39701 88.8835 10.7378 86.5497 10.7378 83.6709C10.7378 80.7922 8.39701 78.4585 5.50946 78.4585C2.6219 78.4585 0.281067 80.7922 0.281067 83.6709C0.281067 86.5497 2.6219 88.8835 5.50946 88.8835Z" fill="url(#paint25_linear_2125_10)"/>
</g>
<mask id="mask13_2125_10" style="mask-type:alpha" maskUnits="userSpaceOnUse" x="30" y="78" width="12" height="11">
<path d="M35.7905 88.8835C38.6781 88.8835 41.0189 86.5497 41.0189 83.6709C41.0189 80.7922 38.6781 78.4585 35.7905 78.4585C32.903 78.4585 30.5621 80.7922 30.5621 83.6709C30.5621 86.5497 32.903 88.8835 35.7905 88.8835Z" fill="url(#paint26_linear_2125_10)"/>
</mask>
<g mask="url(#mask13_2125_10)">
<path d="M35.7905 88.8835C38.6781 88.8835 41.0189 86.5497 41.0189 83.6709C41.0189 80.7922 38.6781 78.4585 35.7905 78.4585C32.903 78.4585 30.5621 80.7922 30.5621 83.6709C30.5621 86.5497 32.903 88.8835 35.7905 88.8835Z" fill="url(#paint27_linear_2125_10)"/>
</g>
<mask id="mask14_2125_10" style="mask-type:alpha" maskUnits="userSpaceOnUse" x="60" y="78" width="12" height="11">
<path d="M66.0716 88.8835C68.9592 88.8835 71.3 86.5497 71.3 83.6709C71.3 80.7922 68.9592 78.4585 66.0716 78.4585C63.184 78.4585 60.8432 80.7922 60.8432 83.6709C60.8432 86.5497 63.184 88.8835 66.0716 88.8835Z" fill="url(#paint28_linear_2125_10)"/>
</mask>
<g mask="url(#mask14_2125_10)">
<path d="M66.0716 88.8835C68.9592 88.8835 71.3 86.5497 71.3 83.6709C71.3 80.7922 68.9592 78.4585 66.0716 78.4585C63.184 78.4585 60.8432 80.7922 60.8432 83.6709C60.8432 86.5497 63.184 88.8835 66.0716 88.8835Z" fill="url(#paint29_linear_2125_10)"/>
</g>
<mask id="mask15_2125_10" style="mask-type:alpha" maskUnits="userSpaceOnUse" x="91" y="78" width="11" height="11">
<path d="M96.3526 88.8835C99.2402 88.8835 101.581 86.5497 101.581 83.6709C101.581 80.7922 99.2402 78.4585 96.3526 78.4585C93.4651 78.4585 91.1243 80.7922 91.1243 83.6709C91.1243 86.5497 93.4651 88.8835 96.3526 88.8835Z" fill="url(#paint30_linear_2125_10)"/>
</mask>
<g mask="url(#mask15_2125_10)">
<path d="M96.3526 88.8835C99.2402 88.8835 101.581 86.5497 101.581 83.6709C101.581 80.7922 99.2402 78.4585 96.3526 78.4585C93.4651 78.4585 91.1243 80.7922 91.1243 83.6709C91.1243 86.5497 93.4651 88.8835 96.3526 88.8835Z" fill="url(#paint31_linear_2125_10)"/>
</g>
</g>
<defs>
<linearGradient id="paint0_linear_2125_10" x1="55.2771" y1="131.134" x2="-16.1245" y2="-50.67" gradientUnits="userSpaceOnUse">
<stop stop-color="white"/>
<stop offset="1" stop-color="white"/>
</linearGradient>
<linearGradient id="paint1_linear_2125_10" x1="55.2771" y1="131.134" x2="-16.1245" y2="-50.67" gradientUnits="userSpaceOnUse">
<stop stop-color="white"/>
<stop offset="1" stop-color="white"/>
</linearGradient>
<linearGradient id="paint2_linear_2125_10" x1="85.5582" y1="131.134" x2="14.1566" y2="-50.67" gradientUnits="userSpaceOnUse">
<stop stop-color="white"/>
<stop offset="1" stop-color="white"/>
</linearGradient>
<linearGradient id="paint3_linear_2125_10" x1="85.5582" y1="131.134" x2="14.1566" y2="-50.67" gradientUnits="userSpaceOnUse">
<stop stop-color="white"/>
<stop offset="1" stop-color="white"/>
</linearGradient>
<linearGradient id="paint4_linear_2125_10" x1="115.839" y1="131.134" x2="44.4376" y2="-50.67" gradientUnits="userSpaceOnUse">
<stop stop-color="white"/>
<stop offset="1" stop-color="white"/>
</linearGradient>
<linearGradient id="paint5_linear_2125_10" x1="115.839" y1="131.134" x2="44.4376" y2="-50.67" gradientUnits="userSpaceOnUse">
<stop stop-color="white"/>
<stop offset="1" stop-color="white"/>
</linearGradient>
<linearGradient id="paint6_linear_2125_10" x1="146.12" y1="131.134" x2="74.7187" y2="-50.67" gradientUnits="userSpaceOnUse">
<stop stop-color="white"/>
<stop offset="1" stop-color="white"/>
</linearGradient>
<linearGradient id="paint7_linear_2125_10" x1="146.12" y1="131.134" x2="74.7187" y2="-50.67" gradientUnits="userSpaceOnUse">
<stop stop-color="white"/>
<stop offset="1" stop-color="white"/>
</linearGradient>
<linearGradient id="paint8_linear_2125_10" x1="55.2771" y1="157.303" x2="-16.1233" y2="-24.4991" gradientUnits="userSpaceOnUse">
<stop stop-color="white"/>
<stop offset="1" stop-color="white"/>
</linearGradient>
<linearGradient id="paint9_linear_2125_10" x1="55.2771" y1="157.303" x2="-16.1233" y2="-24.4991" gradientUnits="userSpaceOnUse">
<stop stop-color="white"/>
<stop offset="1" stop-color="white"/>
</linearGradient>
<linearGradient id="paint10_linear_2125_10" x1="85.5582" y1="157.303" x2="14.1578" y2="-24.4991" gradientUnits="userSpaceOnUse">
<stop stop-color="white"/>
<stop offset="1" stop-color="white"/>
</linearGradient>
<linearGradient id="paint11_linear_2125_10" x1="85.5582" y1="157.303" x2="14.1578" y2="-24.4991" gradientUnits="userSpaceOnUse">
<stop stop-color="white"/>
<stop offset="1" stop-color="white"/>
</linearGradient>
<linearGradient id="paint12_linear_2125_10" x1="115.839" y1="157.303" x2="44.4389" y2="-24.4991" gradientUnits="userSpaceOnUse">
<stop stop-color="white"/>
<stop offset="1" stop-color="white"/>
</linearGradient>
<linearGradient id="paint13_linear_2125_10" x1="115.839" y1="157.303" x2="44.4389" y2="-24.4991" gradientUnits="userSpaceOnUse">
<stop stop-color="white"/>
<stop offset="1" stop-color="white"/>
</linearGradient>
<linearGradient id="paint14_linear_2125_10" x1="146.12" y1="157.303" x2="74.7199" y2="-24.4991" gradientUnits="userSpaceOnUse">
<stop stop-color="white"/>
<stop offset="1" stop-color="white"/>
</linearGradient>
<linearGradient id="paint15_linear_2125_10" x1="146.12" y1="157.303" x2="74.7199" y2="-24.4991" gradientUnits="userSpaceOnUse">
<stop stop-color="white"/>
<stop offset="1" stop-color="white"/>
</linearGradient>
<linearGradient id="paint16_linear_2125_10" x1="55.2771" y1="183.421" x2="-16.1245" y2="1.61756" gradientUnits="userSpaceOnUse">
<stop stop-color="white"/>
<stop offset="1" stop-color="white"/>
</linearGradient>
<linearGradient id="paint17_linear_2125_10" x1="55.2771" y1="183.421" x2="-16.1245" y2="1.61756" gradientUnits="userSpaceOnUse">
<stop stop-color="white"/>
<stop offset="1" stop-color="white"/>
</linearGradient>
<linearGradient id="paint18_linear_2125_10" x1="85.5582" y1="183.421" x2="14.1566" y2="1.61756" gradientUnits="userSpaceOnUse">
<stop stop-color="white"/>
<stop offset="1" stop-color="white"/>
</linearGradient>
<linearGradient id="paint19_linear_2125_10" x1="85.5582" y1="183.421" x2="14.1566" y2="1.61756" gradientUnits="userSpaceOnUse">
<stop stop-color="white"/>
<stop offset="1" stop-color="white"/>
</linearGradient>
<linearGradient id="paint20_linear_2125_10" x1="115.839" y1="183.421" x2="44.4376" y2="1.61756" gradientUnits="userSpaceOnUse">
<stop stop-color="white"/>
<stop offset="1" stop-color="white"/>
</linearGradient>
<linearGradient id="paint21_linear_2125_10" x1="115.839" y1="183.421" x2="44.4376" y2="1.61756" gradientUnits="userSpaceOnUse">
<stop stop-color="white"/>
<stop offset="1" stop-color="white"/>
</linearGradient>
<linearGradient id="paint22_linear_2125_10" x1="146.12" y1="183.421" x2="74.7187" y2="1.61756" gradientUnits="userSpaceOnUse">
<stop stop-color="white"/>
<stop offset="1" stop-color="white"/>
</linearGradient>
<linearGradient id="paint23_linear_2125_10" x1="146.12" y1="183.421" x2="74.7187" y2="1.61756" gradientUnits="userSpaceOnUse">
<stop stop-color="white"/>
<stop offset="1" stop-color="white"/>
</linearGradient>
<linearGradient id="paint24_linear_2125_10" x1="55.2771" y1="209.592" x2="-16.1245" y2="27.7885" gradientUnits="userSpaceOnUse">
<stop stop-color="white"/>
<stop offset="1" stop-color="white"/>
</linearGradient>
<linearGradient id="paint25_linear_2125_10" x1="55.2771" y1="209.592" x2="-16.1245" y2="27.7885" gradientUnits="userSpaceOnUse">
<stop stop-color="white"/>
<stop offset="1" stop-color="white"/>
</linearGradient>
<linearGradient id="paint26_linear_2125_10" x1="85.5582" y1="209.592" x2="14.1566" y2="27.7885" gradientUnits="userSpaceOnUse">
<stop stop-color="white"/>
<stop offset="1" stop-color="white"/>
</linearGradient>
<linearGradient id="paint27_linear_2125_10" x1="85.5582" y1="209.592" x2="14.1566" y2="27.7885" gradientUnits="userSpaceOnUse">
<stop stop-color="white"/>
<stop offset="1" stop-color="white"/>
</linearGradient>
<linearGradient id="paint28_linear_2125_10" x1="115.839" y1="209.592" x2="44.4376" y2="27.7885" gradientUnits="userSpaceOnUse">
<stop stop-color="white"/>
<stop offset="1" stop-color="white"/>
</linearGradient>
<linearGradient id="paint29_linear_2125_10" x1="115.839" y1="209.592" x2="44.4376" y2="27.7885" gradientUnits="userSpaceOnUse">
<stop stop-color="white"/>
<stop offset="1" stop-color="white"/>
</linearGradient>
<linearGradient id="paint30_linear_2125_10" x1="146.12" y1="209.592" x2="74.7187" y2="27.7885" gradientUnits="userSpaceOnUse">
<stop stop-color="white"/>
<stop offset="1" stop-color="white"/>
</linearGradient>
<linearGradient id="paint31_linear_2125_10" x1="146.12" y1="209.592" x2="74.7187" y2="27.7885" gradientUnits="userSpaceOnUse">
<stop stop-color="white"/>
<stop offset="1" stop-color="white"/>
</linearGradient>
</defs>
</svg>
